<?xml version="1.0" encoding="UTF-8"?>
<svg xmlns="http://www.w3.org/2000/svg" xmlns:xlink="http://www.w3.org/1999/xlink" width="217" height="225" viewBox="0 0 217 225">
<defs>
<g>
<g id="glyph-0-0">
<path d="M 3.332031 0 L 3.332031 -16.667969 L 16.667969 -16.667969 L 16.667969 0 Z M 3.75 -0.417969 L 16.25 -0.417969 L 16.25 -16.25 L 3.75 -16.25 Z M 3.75 -0.417969 "/>
</g>
<g id="glyph-0-1">
<path d="M 9.933594 0 L 7.589844 0 L 7.589844 -14.933594 C 7.023438 -14.394531 6.285156 -13.855469 5.371094 -13.320312 C 4.453125 -12.777344 3.628906 -12.375 2.902344 -12.109375 L 2.902344 -14.375 C 4.210938 -14.988281 5.359375 -15.734375 6.339844 -16.613281 C 7.320312 -17.488281 8.015625 -18.339844 8.425781 -19.167969 L 9.933594 -19.167969 Z M 9.933594 0 "/>
</g>
<g id="glyph-0-2">
<path d="M 1.808594 5.300781 L 1.808594 -19.089844 L 6.980469 -19.089844 L 6.980469 -17.148438 L 4.152344 -17.148438 L 4.152344 3.359375 L 6.980469 3.359375 L 6.980469 5.300781 Z M 1.808594 5.300781 "/>
</g>
<g id="glyph-0-3">
<path d="M 1.339844 0.324219 L 2.472656 -5.222656 L 0.273438 -5.222656 L 0.273438 -7.160156 L 2.863281 -7.160156 L 3.828125 -11.886719 L 0.273438 -11.886719 L 0.273438 -13.828125 L 4.21875 -13.828125 L 5.351562 -19.414062 L 7.304688 -19.414062 L 6.171875 -13.828125 L 10.273438 -13.828125 L 11.40625 -19.414062 L 13.371094 -19.414062 L 12.238281 -13.828125 L 14.492188 -13.828125 L 14.492188 -11.886719 L 11.847656 -11.886719 L 10.871094 -7.160156 L 14.492188 -7.160156 L 14.492188 -5.222656 L 10.480469 -5.222656 L 9.347656 0.324219 L 7.394531 0.324219 L 8.515625 -5.222656 L 4.425781 -5.222656 L 3.292969 0.324219 Z M 4.816406 -7.160156 L 8.90625 -7.160156 L 9.882812 -11.886719 L 5.78125 -11.886719 Z M 4.816406 -7.160156 "/>
</g>
<g id="glyph-0-4">
<path d="M 13.269531 -14.414062 L 10.9375 -14.230469 C 10.726562 -15.148438 10.429688 -15.816406 10.050781 -16.238281 C 9.414062 -16.902344 8.632812 -17.238281 7.707031 -17.238281 C 6.957031 -17.238281 6.304688 -17.027344 5.742188 -16.613281 C 5.003906 -16.074219 4.421875 -15.289062 3.996094 -14.257812 C 3.570312 -13.21875 3.347656 -11.75 3.332031 -9.84375 C 3.894531 -10.703125 4.585938 -11.339844 5.402344 -11.757812 C 6.21875 -12.171875 7.074219 -12.378906 7.96875 -12.382812 C 9.53125 -12.378906 10.859375 -11.804688 11.957031 -10.65625 C 13.054688 -9.503906 13.605469 -8.019531 13.605469 -6.199219 C 13.605469 -5 13.347656 -3.886719 12.832031 -2.859375 C 12.316406 -1.828125 11.605469 -1.039062 10.703125 -0.496094 C 9.796875 0.0507812 8.773438 0.320312 7.628906 0.324219 C 5.675781 0.320312 4.082031 -0.394531 2.851562 -1.828125 C 1.617188 -3.265625 1 -5.632812 1.003906 -8.933594 C 1 -12.617188 1.683594 -15.300781 3.046875 -16.980469 C 4.234375 -18.4375 5.835938 -19.164062 7.851562 -19.167969 C 9.351562 -19.164062 10.582031 -18.742188 11.542969 -17.902344 C 12.5 -17.058594 13.074219 -15.898438 13.269531 -14.414062 Z M 3.699219 -6.183594 C 3.695312 -5.371094 3.867188 -4.601562 4.210938 -3.867188 C 4.550781 -3.128906 5.03125 -2.566406 5.648438 -2.179688 C 6.265625 -1.792969 6.910156 -1.597656 7.589844 -1.601562 C 8.574219 -1.597656 9.425781 -1.996094 10.140625 -2.796875 C 10.851562 -3.59375 11.207031 -4.679688 11.210938 -6.054688 C 11.207031 -7.371094 10.855469 -8.410156 10.15625 -9.171875 C 9.449219 -9.929688 8.566406 -10.3125 7.5 -10.3125 C 6.4375 -10.3125 5.539062 -9.929688 4.804688 -9.171875 C 4.066406 -8.410156 3.695312 -7.414062 3.699219 -6.183594 Z M 3.699219 -6.183594 "/>
</g>
<g id="glyph-0-5">
<path d="M 5.675781 5.300781 L 0.507812 5.300781 L 0.507812 3.359375 L 3.332031 3.359375 L 3.332031 -17.148438 L 0.507812 -17.148438 L 0.507812 -19.089844 L 5.675781 -19.089844 Z M 5.675781 5.300781 "/>
</g>
</g>
</defs>
<rect x="-21.7" y="-22.5" width="260.4" height="270" fill="rgb(100%, 100%, 100%)" fill-opacity="1"/>
<path fill="none" stroke-width="0.0333333" stroke-linecap="butt" stroke-linejoin="miter" stroke="rgb(0%, 0%, 0%)" stroke-opacity="1" stroke-miterlimit="10" d="M 0.455879 0.170273 L 0.255488 0.317266 " transform="matrix(100, 0, 0, 100, 44.634757, 44.902342)"/>
<path fill="none" stroke-width="0.0333333" stroke-linecap="butt" stroke-linejoin="miter" stroke="rgb(0%, 0%, 0%)" stroke-opacity="1" stroke-miterlimit="10" d="M -0.0000194418 0.772773 L 0.0816993 1.022852 " transform="matrix(100, 0, 0, 100, 44.634757, 44.902342)"/>
<path fill="none" stroke-width="0.0333333" stroke-linecap="butt" stroke-linejoin="miter" stroke="rgb(0%, 0%, 0%)" stroke-opacity="1" stroke-miterlimit="10" d="M 0.158379 0.720977 L 0.240137 0.971055 " transform="matrix(100, 0, 0, 100, 44.634757, 44.902342)"/>
<path fill="none" stroke-width="0.0333333" stroke-linecap="butt" stroke-linejoin="miter" stroke="rgb(0%, 0%, 0%)" stroke-opacity="1" stroke-miterlimit="10" d="M 0.499395 1.308672 L 0.87666 1.308672 " transform="matrix(100, 0, 0, 100, 44.634757, 44.902342)"/>
<path fill="none" stroke-width="0.0333333" stroke-linecap="butt" stroke-linejoin="miter" stroke="rgb(0%, 0%, 0%)" stroke-opacity="1" stroke-miterlimit="10" d="M 1.294316 1.022852 L 1.376074 0.772773 " transform="matrix(100, 0, 0, 100, 44.634757, 44.902342)"/>
<path fill="none" stroke-width="0.0333333" stroke-linecap="butt" stroke-linejoin="miter" stroke="rgb(0%, 0%, 0%)" stroke-opacity="1" stroke-miterlimit="10" d="M 1.135918 0.971055 L 1.217637 0.720977 " transform="matrix(100, 0, 0, 100, 44.634757, 44.902342)"/>
<path fill="none" stroke-width="0.0333333" stroke-linecap="butt" stroke-linejoin="miter" stroke="rgb(0%, 0%, 0%)" stroke-opacity="1" stroke-miterlimit="10" d="M 1.001582 0.23 L 1.135996 0.328555 " transform="matrix(100, 0, 0, 100, 44.634757, 44.902342)"/>
<g fill="rgb(0%, 0%, 0%)" fill-opacity="1">
<use xlink:href="#glyph-0-1" x="156.351562" y="218.253906"/>
<use xlink:href="#glyph-0-1" x="171.182294" y="218.253906"/>
</g>
<path fill="none" stroke-width="0.0333333" stroke-linecap="butt" stroke-linejoin="miter" stroke="rgb(0%, 0%, 0%)" stroke-opacity="1" stroke-miterlimit="10" d="M -0.101113 1.733516 L -0.424863 1.733516 L -0.424863 -0.424883 L -0.101113 -0.424883 " transform="matrix(100, 0, 0, 100, 44.634757, 44.902342)"/>
<path fill="none" stroke-width="0.0333333" stroke-linecap="butt" stroke-linejoin="miter" stroke="rgb(0%, 0%, 0%)" stroke-opacity="1" stroke-miterlimit="10" d="M 0.789121 -0.424883 L 1.112871 -0.424883 L 1.112871 1.733516 L 0.789121 1.733516 " transform="matrix(100, 0, 0, 100, 44.634757, 44.902342)"/>
<path fill-rule="nonzero" fill="rgb(100%, 100%, 100%)" fill-opacity="1" d="M 96.445312 25.765625 L 146.050781 25.765625 L 146.050781 59.144531 L 96.445312 59.144531 Z M 96.445312 25.765625 "/>
<path fill-rule="nonzero" fill="rgb(100%, 100%, 100%)" fill-opacity="1" d="M 138.96875 156.628906 L 188.574219 156.628906 L 188.574219 190.007812 L 138.96875 190.007812 Z M 138.96875 156.628906 "/>
<path fill-rule="nonzero" fill="rgb(100%, 100%, 100%)" fill-opacity="1" d="M 165.25 76.230469 L 214.855469 76.230469 L 214.855469 109.609375 L 165.25 109.609375 Z M 165.25 76.230469 "/>
<path fill-rule="nonzero" fill="rgb(100%, 100%, 100%)" fill-opacity="1" d="M 38.300781 156.628906 L 87.90625 156.628906 L 87.90625 190.007812 L 38.300781 190.007812 Z M 38.300781 156.628906 "/>
<path fill-rule="nonzero" fill="rgb(100%, 100%, 100%)" fill-opacity="1" d="M 12.019531 76.230469 L 61.625 76.230469 L 61.625 109.609375 L 12.019531 109.609375 Z M 12.019531 76.230469 "/>
<g fill="rgb(0%, 0%, 0%)" fill-opacity="1">
<use xlink:href="#glyph-0-2" x="98.96875" y="49.511719"/>
<use xlink:href="#glyph-0-3" x="106.377605" y="49.511719"/>
<use xlink:href="#glyph-0-4" x="121.208337" y="49.511719"/>
<use xlink:href="#glyph-0-5" x="136.039069" y="49.511719"/>
</g>
<g fill="rgb(0%, 0%, 0%)" fill-opacity="1">
<use xlink:href="#glyph-0-2" x="141.492188" y="180.375"/>
<use xlink:href="#glyph-0-3" x="148.901043" y="180.375"/>
<use xlink:href="#glyph-0-4" x="163.731774" y="180.375"/>
<use xlink:href="#glyph-0-5" x="178.562506" y="180.375"/>
</g>
<g fill="rgb(0%, 0%, 0%)" fill-opacity="1">
<use xlink:href="#glyph-0-2" x="167.773438" y="99.976562"/>
<use xlink:href="#glyph-0-3" x="175.182293" y="99.976562"/>
<use xlink:href="#glyph-0-4" x="190.013024" y="99.976562"/>
<use xlink:href="#glyph-0-5" x="204.843756" y="99.976562"/>
</g>
<g fill="rgb(0%, 0%, 0%)" fill-opacity="1">
<use xlink:href="#glyph-0-2" x="40.824219" y="180.375"/>
<use xlink:href="#glyph-0-3" x="48.233074" y="180.375"/>
<use xlink:href="#glyph-0-4" x="63.063806" y="180.375"/>
<use xlink:href="#glyph-0-5" x="77.894537" y="180.375"/>
</g>
<g fill="rgb(0%, 0%, 0%)" fill-opacity="1">
<use xlink:href="#glyph-0-2" x="14.542969" y="99.976562"/>
<use xlink:href="#glyph-0-3" x="21.951824" y="99.976562"/>
<use xlink:href="#glyph-0-4" x="36.782556" y="99.976562"/>
<use xlink:href="#glyph-0-5" x="51.613287" y="99.976562"/>
</g>
</svg>
